<?xml version="1.0" standalone="no"?>
<!DOCTYPE svg PUBLIC "-//W3C//DTD SVG 20010904//EN"
 "http://www.w3.org/TR/2001/REC-SVG-20010904/DTD/svg10.dtd">
<svg version="1.0" xmlns="http://www.w3.org/2000/svg"
 width="1024.000000pt" height="1024.000000pt" viewBox="0 0 1024.000000 1024.000000"
 preserveAspectRatio="xMidYMid meet">
<metadata>
Created by potrace 1.16, written by Peter Selinger 2001-2019
</metadata>
<g transform="translate(0.000000,1024.000000) scale(0.100000,-0.100000)"
fill="#000000" stroke="none">
<path d="M4940 8836 c-176 -98 -412 -235 -470 -271 -19 -12 -44 -25 -56 -29
-18 -6 -22 -17 -27 -89 -4 -45 -7 -154 -7 -243 l0 -161 -80 -59 c-84 -61 -260
-173 -465 -295 -66 -39 -139 -84 -163 -100 -50 -34 -56 -35 -90 -11 -15 11
-126 75 -247 144 -121 69 -247 142 -279 162 -33 20 -72 36 -86 36 -14 0 -71
-26 -125 -59 -55 -32 -211 -123 -347 -203 l-248 -145 -1 -414 c0 -228 0 -426
0 -441 1 -22 10 -31 54 -51 28 -13 134 -76 235 -138 100 -63 206 -128 235
-144 61 -35 57 -9 38 -277 -9 -129 -9 -197 -2 -253 l11 -76 -33 -29 c-19 -16
-49 -57 -67 -91 -30 -56 -32 -67 -28 -128 8 -108 58 -196 134 -239 17 -9 17
-14 1 -83 -19 -86 -27 -340 -13 -466 l8 -83 -118 -75 c-66 -42 -193 -118 -284
-170 -91 -51 -166 -99 -167 -107 -10 -73 -15 -91 -24 -77 -10 16 -12 9 -9 -46
1 -22 7 -43 13 -47 9 -5 12 -103 13 -353 1 -190 3 -347 5 -349 2 -2 47 -26 99
-53 189 -99 587 -344 605 -372 3 -6 37 10 78 35 95 61 506 304 524 311 16 6
138 -63 358 -202 88 -56 214 -134 280 -173 66 -39 134 -80 150 -91 l30 -21 5
-286 5 -286 101 -57 c56 -31 146 -83 200 -115 54 -33 164 -98 243 -144 79 -47
149 -92 156 -99 8 -7 16 -9 19 -4 3 5 93 59 198 121 106 62 256 150 333 196
77 45 148 86 158 89 16 7 17 31 17 299 l0 293 83 52 c336 214 582 361 691 412
l48 22 52 -26 c28 -15 79 -44 113 -64 34 -21 92 -55 130 -76 96 -54 199 -115
258 -152 l50 -32 210 119 c116 66 266 154 335 196 69 41 142 85 162 96 23 13
36 26 33 34 -3 8 -5 206 -5 440 l0 427 -138 75 c-158 86 -392 221 -429 248
l-24 18 0 308 1 309 54 51 c76 72 90 104 91 201 0 65 -4 89 -23 125 -25 48
-89 120 -107 120 -6 0 -11 88 -13 263 -1 144 -4 269 -7 277 -5 18 12 30 250
170 99 58 212 127 252 153 40 26 77 47 82 47 7 0 11 146 13 440 l3 440 -118
68 c-64 37 -208 121 -320 186 -111 66 -223 130 -248 143 l-47 24 -88 -54 c-96
-58 -444 -261 -510 -296 l-40 -23 -92 54 c-241 139 -459 271 -574 347 l-128
84 0 243 0 242 -95 52 c-53 28 -146 81 -208 117 -62 36 -164 95 -227 131 -63
35 -129 72 -145 82 l-30 19 -165 -93z m203 -74 c38 -26 313 -189 430 -256 27
-16 45 -32 40 -36 -4 -4 -51 -33 -103 -63 -52 -30 -147 -87 -210 -127 -63 -41
-136 -85 -161 -99 l-47 -25 -58 40 c-33 22 -102 65 -154 94 -52 30 -144 85
-204 122 l-109 67 44 26 c24 14 125 73 224 130 99 57 196 115 215 128 19 14
39 26 43 26 5 1 27 -12 50 -27z m537 -715 l0 -313 -107 -64 c-60 -35 -176
-106 -259 -157 -83 -51 -153 -93 -157 -93 -9 0 -9 133 0 413 l6 217 166 102
c156 95 343 207 349 208 1 0 2 -141 2 -313z m-981 204 c80 -49 176 -108 212
-132 36 -24 80 -52 97 -61 38 -21 34 -44 -10 -53 -17 -4 -49 -21 -72 -39 -37
-28 -88 -59 -246 -149 -61 -35 -133 -87 -127 -93 3 -3 40 17 84 45 43 28 100
63 128 77 27 15 81 49 120 76 41 29 77 47 87 44 10 -2 16 0 13 4 -5 7 24 30
37 30 2 0 4 -128 4 -284 l2 -284 -72 47 c-39 26 -93 61 -121 77 -27 15 -55 33
-61 39 -6 6 -32 19 -58 30 -25 10 -46 23 -46 27 0 4 -6 8 -14 8 -8 0 -43 15
-77 33 l-62 32 6 220 c4 141 10 221 16 223 6 2 11 19 11 38 l0 35 33 -24 c17
-13 39 -27 47 -31 8 -4 4 1 -10 11 -73 53 -100 85 -100 120 0 44 -6 46 179
-66z m-309 -390 c0 -71 -10 -82 -146 -160 -71 -41 -159 -91 -196 -112 -37 -22
-129 -80 -205 -129 -75 -50 -141 -90 -145 -90 -5 0 -8 23 -6 52 l3 51 175 109
c96 59 238 146 315 192 77 46 151 93 165 105 35 29 40 26 40 -18z m1560 -43
c41 -25 120 -71 175 -103 123 -72 364 -223 388 -243 16 -15 24 -81 11 -95 -3
-3 -29 9 -58 27 -90 57 -209 128 -281 168 -38 21 -133 75 -210 121 l-140 82
-5 58 c-3 32 -3 60 -1 63 3 2 14 -4 25 -14 12 -10 55 -39 96 -64z m-2834 -124
c82 -47 201 -115 264 -151 63 -35 119 -68 123 -73 5 -4 -43 -36 -105 -70 -62
-35 -124 -71 -138 -80 -14 -10 -85 -52 -159 -94 l-133 -77 -127 77 c-69 43
-193 114 -274 158 l-149 80 24 18 c13 10 61 39 107 65 46 25 156 88 245 139
89 52 164 94 167 94 3 0 73 -39 155 -86z m4148 77 c4 -5 41 -28 84 -51 42 -24
140 -80 217 -125 77 -46 157 -91 178 -101 20 -10 37 -21 37 -25 0 -6 -112 -76
-420 -260 -41 -25 -84 -51 -96 -59 -19 -12 -29 -8 -107 43 -48 31 -101 64
-119 73 -77 38 -327 198 -322 205 2 4 91 57 197 117 105 61 221 128 257 150
67 42 85 48 94 33z m-2732 -200 c79 -43 204 -116 278 -161 74 -45 145 -86 158
-91 12 -5 48 -25 79 -45 52 -33 60 -35 79 -23 58 37 176 106 344 204 102 59
196 115 210 125 14 10 50 29 79 43 46 21 59 23 80 13 29 -12 231 -131 351
-206 41 -26 107 -64 145 -85 39 -20 95 -54 125 -74 l55 -36 3 -85 c7 -270 22
-458 37 -503 16 -46 16 -49 -1 -69 -11 -11 -38 -31 -62 -45 l-42 -25 -48 53
c-26 29 -94 98 -152 154 -152 146 -345 345 -348 360 -2 7 -9 15 -15 17 -7 1
-472 2 -1035 0 l-1023 -3 -9 -25 c-5 -13 -13 -142 -16 -287 -4 -144 -8 -264
-10 -265 -4 -6 -128 69 -136 81 -4 7 1 20 10 30 15 17 17 52 19 314 l2 295 78
52 c43 29 130 82 193 118 63 37 185 107 270 157 85 49 156 90 157 91 1 0 66
-35 145 -79z m-1722 -479 c36 -23 73 -45 83 -48 9 -4 17 -9 17 -13 -1 -9 -152
-103 -259 -161 -101 -55 -206 -123 -217 -142 -4 -6 8 0 27 14 40 29 172 103
178 99 2 -1 7 1 10 6 3 4 16 14 29 21 105 59 155 82 176 82 22 0 25 -5 29 -47
3 -40 4 -37 5 17 0 36 2 70 3 75 3 8 16 -581 14 -592 -1 -3 -223 129 -317 189
-42 26 -80 48 -83 48 -18 0 -95 63 -89 72 5 7 1 9 -9 5 -16 -6 -17 15 -16 261
1 149 5 256 9 242 6 -19 8 -20 9 -6 1 13 6 16 17 12 14 -5 15 -4 4 9 -7 8 -18
15 -26 15 -14 0 -29 61 -21 85 5 11 48 -11 184 -94 98 -59 207 -126 243 -149z
m750 40 c0 -121 3 -259 6 -309 8 -108 10 -106 -139 -189 -54 -30 -163 -95
-242 -144 -79 -50 -146 -90 -149 -90 -3 0 -6 143 -6 318 l0 318 113 68 c61 38
160 98 220 132 59 35 124 75 145 89 20 14 40 25 44 25 5 0 8 -98 8 -218z
m4280 -105 l0 -324 -72 -40 c-127 -70 -314 -180 -387 -227 -39 -25 -72 -42
-73 -38 -1 4 -2 149 -3 323 l0 316 50 28 c28 15 106 62 175 105 163 101 293
178 303 179 4 1 7 -145 7 -322z m-923 167 c126 -75 235 -143 243 -150 13 -11
16 -63 18 -334 l3 -322 -38 30 c-21 17 -65 46 -98 65 -89 50 -251 147 -323
192 l-62 40 2 313 c2 243 6 311 15 307 7 -2 115 -66 240 -141z m-1111 -252
c-2 -9 -6 -129 -8 -265 -2 -205 -1 -249 11 -256 18 -12 147 -21 331 -25 l145
-4 3 -1314 3 -1314 -448 1 c-246 1 -777 2 -1179 3 l-732 2 -7 143 c-9 168 -14
2103 -7 2659 l5 387 944 1 c895 0 944 -1 939 -18z m198 -170 c44 -43 119 -115
166 -160 46 -44 82 -83 79 -87 -4 -3 -81 -8 -173 -12 l-167 -6 2 171 c1 95 4
172 6 172 3 0 42 -35 87 -78z m-2434 -267 c27 -14 77 -43 111 -65 34 -22 73
-40 86 -40 l23 0 0 -958 0 -957 -46 -24 c-25 -13 -67 -49 -94 -78 l-49 -54
-63 31 c-35 17 -115 62 -178 100 -63 37 -146 86 -184 108 l-69 41 -1 307 -1
308 52 49 c29 27 65 74 79 104 48 97 22 226 -64 316 -20 20 -41 37 -47 37 -11
0 -25 262 -25 471 0 76 1 79 33 102 35 27 294 177 305 177 4 0 21 11 37 25 17
13 34 24 38 25 4 0 30 -11 57 -25z m3167 -9 c28 -14 87 -47 130 -74 43 -28 90
-56 106 -63 15 -7 27 -16 27 -20 0 -4 14 -10 31 -14 17 -4 33 -14 37 -23 3
-10 14 -23 25 -31 11 -8 16 -19 12 -30 -4 -9 -8 -27 -10 -41 -1 -14 -6 -54
-11 -90 -13 -93 -10 -299 4 -339 12 -33 11 -35 -34 -83 -117 -125 -124 -301
-16 -409 26 -25 54 -48 62 -51 12 -4 12 -13 1 -60 -7 -35 -13 -153 -15 -307
-2 -185 -6 -254 -16 -266 -20 -24 -424 -265 -445 -265 -4 0 -16 11 -27 25 -21
27 -77 68 -148 108 l-44 25 2 793 c1 437 2 865 2 952 0 125 3 157 14 157 7 0
33 15 57 33 24 18 58 39 74 47 17 8 38 22 48 32 24 25 72 22 134 -6z m-3727
-512 l0 -205 -37 3 -38 3 -3 198 c-1 125 1 205 8 217 10 19 13 19 40 5 l30
-16 0 -205z m4278 9 l2 -213 -45 0 -45 0 0 216 0 215 43 -3 42 -3 3 -212z
m-4219 -362 c110 -79 85 -237 -46 -287 -98 -38 -191 15 -201 115 -11 123 73
210 188 195 19 -3 46 -13 59 -23z m4286 -21 c110 -107 38 -279 -118 -280 -89
0 -139 44 -145 129 -3 47 0 66 21 108 33 64 71 85 150 80 49 -3 62 -8 92 -37z
m-4370 -440 l25 -10 -2 -242 -3 -243 -35 0 -35 0 -3 230 c-1 127 0 240 3 253
6 25 12 26 50 12z m4295 -7 c8 -7 12 -392 5 -440 -6 -42 -7 -43 -46 -43 l-39
0 0 243 c0 134 3 246 6 250 6 6 65 -2 74 -10z m-4153 -722 c87 -49 192 -108
233 -133 41 -24 92 -52 113 -63 20 -11 37 -24 37 -30 0 -5 -119 -81 -265 -168
l-266 -158 -42 24 c-23 13 -121 69 -217 124 -264 151 -290 167 -290 174 0 4
75 51 168 104 92 53 208 123 257 155 50 32 95 59 102 59 7 1 83 -39 170 -88z
m4321 -34 c114 -68 235 -139 270 -157 34 -18 62 -37 62 -41 0 -12 -93 -70
-330 -209 l-195 -113 -60 32 c-93 51 -448 260 -474 281 l-25 18 60 36 c32 20
109 65 169 100 61 34 151 88 200 119 50 31 96 57 103 57 7 0 106 -56 220 -123z
m-3637 -454 c12 -272 13 -282 33 -287 76 -21 410 -27 1411 -24 814 2 1097 6
1116 15 l27 12 1 223 c1 123 5 237 10 253 5 17 10 22 10 12 1 -15 6 -17 24
-11 12 4 33 8 47 8 l25 1 5 -269 5 -268 -24 -10 c-14 -5 -70 -40 -125 -77 -56
-37 -161 -103 -234 -146 -74 -42 -186 -110 -250 -151 -63 -41 -121 -74 -129
-74 -24 0 -131 59 -453 250 -91 54 -177 101 -192 105 -27 7 -52 -6 -378 -200
-58 -34 -145 -86 -193 -114 l-89 -53 -37 25 c-21 14 -66 39 -102 57 -35 18
-145 83 -244 145 -210 130 -284 175 -342 204 l-43 21 0 345 0 344 -27 15 -28
15 27 1 c14 0 50 11 80 25 l53 25 2 -68 c1 -37 7 -194 14 -349z m-1278 53
c170 -100 359 -215 370 -226 5 -4 -24 -25 -65 -47 -40 -22 -107 -61 -148 -88
-41 -27 -104 -64 -140 -83 -71 -37 -134 -81 -127 -89 6 -6 64 26 157 87 147
96 172 107 240 106 54 -2 63 1 70 18 5 12 9 -96 9 -251 1 -176 -3 -273 -9
-273 -5 0 -10 6 -10 13 0 11 -68 47 -90 47 -6 0 -10 5 -10 10 0 6 -5 10 -11
10 -6 0 -52 24 -102 54 -51 29 -128 75 -172 100 -44 26 -87 53 -96 59 -14 11
-15 41 -10 264 4 138 10 255 13 259 4 4 16 1 25 -7 10 -7 5 1 -10 17 -25 28
-49 104 -33 104 3 0 70 -38 149 -84z m1027 -93 c0 -98 3 -241 6 -318 l5 -140
-187 -110 c-104 -60 -223 -133 -267 -162 -50 -33 -80 -47 -83 -40 -2 7 -3 153
-2 325 l3 314 255 154 c140 85 258 154 263 154 4 0 7 -80 7 -177z m4278 -140
l-3 -318 -105 -62 c-187 -111 -330 -197 -373 -225 -23 -15 -46 -28 -51 -28 -4
0 -6 144 -2 322 l6 322 142 83 c79 45 187 108 240 139 53 30 102 62 109 70 6
8 18 14 25 14 12 0 14 -52 12 -317z m-1062 249 c50 -33 163 -101 252 -152 89
-51 162 -97 162 -101 0 -5 -18 -18 -41 -29 -22 -12 -70 -39 -106 -61 -36 -22
-122 -70 -192 -106 -191 -99 -192 -115 -1 -24 25 12 59 31 75 41 57 37 147 80
155 75 5 -3 13 3 19 12 6 10 11 15 11 11 0 -4 13 -3 29 2 29 8 29 8 34 -38 2
-26 5 -152 6 -281 2 -223 1 -233 -16 -220 -10 7 -22 18 -28 24 -5 6 -62 40
-125 76 -63 36 -168 97 -232 135 l-117 69 -1 100 c0 55 3 171 7 257 6 146 7
156 24 148 10 -6 30 -15 46 -20 l28 -10 -25 19 c-14 11 -37 26 -52 32 -25 10
-28 17 -28 55 0 29 4 44 13 44 7 0 53 -26 103 -58z m-246 -563 c0 -60 -10 -68
-395 -306 -49 -30 -138 -86 -197 -124 -58 -38 -108 -69 -111 -69 -10 0 -18 53
-12 80 5 22 35 43 176 126 94 54 223 133 287 175 115 74 245 157 250 158 1 1
2 -17 2 -40z m-2555 -155 c280 -172 323 -199 368 -227 32 -20 46 -35 43 -44
-4 -8 -6 -30 -6 -48 l0 -34 -102 60 c-181 106 -332 200 -353 219 -11 10 -47
33 -80 51 -142 78 -163 100 -151 165 l7 34 82 -54 c45 -30 132 -84 192 -122z
m1237 13 c310 -181 427 -253 424 -262 -3 -10 -77 -54 -296 -177 -69 -39 -146
-86 -173 -104 -26 -19 -49 -34 -52 -34 -3 0 -44 24 -92 54 -134 81 -373 221
-420 245 -24 12 -43 25 -43 29 0 4 42 30 92 57 50 28 168 96 262 152 94 56
176 102 181 102 6 1 58 -27 117 -62z m-556 -451 c65 -40 174 -106 242 -146 68
-40 126 -79 129 -86 3 -8 0 -20 -6 -28 -6 -7 -9 -15 -6 -17 8 -9 15 -569 7
-569 -4 0 -23 13 -42 30 -19 16 -38 29 -42 30 -4 0 -85 46 -180 101 -95 56
-190 111 -211 123 l-37 21 6 220 c4 121 10 224 15 230 5 5 9 17 9 27 0 15 3
17 19 8 35 -18 35 -10 1 15 -19 14 -38 36 -43 48 -9 24 -1 67 11 67 5 0 62
-33 128 -74z m1024 -239 c0 -277 -2 -305 -17 -319 -10 -8 -97 -61 -193 -117
-96 -57 -208 -125 -247 -151 l-73 -49 0 117 c0 64 3 208 7 320 l6 203 51 30
c28 17 139 84 246 149 107 65 201 119 208 119 9 1 12 -66 12 -302z"/>
<path d="M4340 6744 c-41 -26 -82 -52 -91 -60 -8 -7 -40 -27 -70 -43 l-54 -30
0 -186 0 -186 72 -35 c39 -20 102 -55 139 -80 37 -24 69 -44 71 -44 2 0 16 9
31 19 66 46 200 130 232 146 l35 16 0 179 0 179 -60 32 c-77 41 -131 75 -176
110 -20 16 -41 29 -45 29 -5 0 -43 -21 -84 -46z m65 -85 c6 -16 9 -18 15 -8 7
10 27 3 94 -31 47 -25 86 -47 86 -50 0 -3 -30 -25 -66 -50 -120 -81 -105 -77
-160 -47 l-49 27 35 -30 c19 -16 38 -30 41 -30 4 0 9 -24 12 -52 6 -57 -20
-171 -38 -166 -5 2 -42 21 -82 43 l-71 40 -1 114 c0 105 1 113 20 118 18 5 18
7 3 18 -14 10 -6 19 62 68 44 31 82 56 86 56 4 1 10 -9 13 -20z m205 -255 l0
-105 -32 -14 c-18 -7 -52 -27 -75 -44 -48 -35 -63 -38 -63 -16 0 40 34 222 44
234 14 18 107 61 118 55 4 -3 8 -52 8 -110z"/>
<path d="M5035 6661 l-170 -6 0 -28 0 -28 270 2 c336 2 379 6 383 37 3 21 0
22 -66 22 -38 0 -109 2 -158 4 -49 1 -165 0 -259 -3z"/>
<path d="M4918 6502 c-57 -3 -58 -3 -58 -34 l0 -30 333 4 c250 3 338 7 356 17
l25 14 -23 18 c-21 17 -43 19 -299 16 -153 -1 -303 -3 -334 -5z"/>
<path d="M4888 6343 c-22 -3 -28 -10 -28 -30 l0 -25 333 3 c300 4 336 6 360
22 15 10 25 22 22 27 -6 10 -628 12 -687 3z"/>
<path d="M4860 6175 l0 -25 613 2 c604 3 612 3 612 23 0 20 -8 20 -612 23
l-613 2 0 -25z"/>
<path d="M4860 6030 l0 -30 616 0 615 0 -3 22 c-2 16 -12 25 -33 29 -16 4
-292 7 -612 8 l-583 1 0 -30z"/>
<path d="M4140 5826 l0 -34 418 3 c229 2 424 6 433 10 15 6 14 9 -6 31 l-22
24 -412 0 -411 0 0 -34z"/>
<path d="M5430 5844 c-96 -6 -204 -15 -240 -19 -63 -8 -64 -9 -27 -15 45 -8
479 -15 740 -12 l177 2 0 24 c0 20 -6 25 -37 30 -54 9 -407 3 -613 -10z"/>
<path d="M4203 5703 c-58 -4 -63 -6 -63 -27 l0 -23 178 -4 c97 -3 533 -5 967
-4 l790 0 0 25 c0 22 -5 26 -45 32 -45 7 -1710 7 -1827 1z"/>
<path d="M4140 5537 l0 -24 182 -6 c235 -9 1572 -9 1672 0 54 4 80 11 83 21 3
8 0 18 -7 22 -7 4 -444 9 -972 9 l-958 1 0 -23z"/>
<path d="M4148 5434 c-5 -4 -8 -17 -8 -30 l0 -22 283 -7 c334 -8 1642 -3 1652
7 4 3 4 15 1 25 -6 17 -39 18 -788 20 -431 1 -862 5 -958 9 -96 3 -178 3 -182
-2z"/>
<path d="M4137 5287 c-16 -43 -39 -42 972 -42 528 0 963 4 967 8 5 4 3 16 -2
25 -10 16 -80 17 -972 20 -797 2 -961 0 -965 -11z"/>
<path d="M4140 5146 c-15 -15 -12 -33 6 -40 21 -8 1882 -8 1912 0 16 5 22 13
20 28 l-3 21 -963 0 c-595 0 -967 -4 -972 -9z"/>
<path d="M4135 5001 c-3 -13 -4 -26 -1 -29 10 -10 1940 -2 1950 8 7 7 5 15 -5
25 -12 12 -147 15 -976 17 l-962 3 -6 -24z"/>
<path d="M4144 4836 c-4 -9 -3 -20 1 -24 12 -12 663 -8 675 4 13 13 -100 21
-437 31 -213 6 -233 5 -239 -11z"/>
<path d="M5110 4706 c0 -8 8 -22 17 -32 16 -15 33 -16 183 -9 220 11 402 11
530 1 58 -5 136 -6 173 -2 62 7 67 9 67 32 l0 24 -485 0 c-414 0 -485 -2 -485
-14z"/>
<path d="M4135 4679 c-4 -11 -5 -22 -3 -24 6 -6 850 -24 864 -18 20 8 17 21
-8 34 -27 14 -326 28 -635 28 -206 1 -212 0 -218 -20z"/>
<path d="M5570 4606 c-13 -36 -29 -41 -59 -18 l-27 20 -11 -29 c-11 -29 -45
-40 -58 -19 -11 19 -35 -10 -35 -42 0 -27 -2 -29 -34 -23 -38 8 -55 -7 -35
-31 14 -17 4 -30 -26 -36 -17 -3 -20 -10 -17 -47 3 -36 0 -43 -17 -48 -22 -6
-29 -37 -11 -48 15 -9 12 -41 -5 -55 -21 -17 -19 -27 6 -35 19 -6 20 -12 14
-51 -5 -36 -3 -44 9 -44 12 0 16 -10 16 -34 0 -28 5 -38 28 -48 18 -9 27 -21
26 -36 0 -16 5 -22 22 -22 38 0 54 -11 54 -39 0 -20 3 -22 10 -11 7 12 12 12
34 0 14 -7 28 -21 32 -32 7 -22 20 -23 32 -2 13 23 51 9 63 -24 12 -30 7 -33
55 33 15 20 15 20 34 -3 l19 -23 11 22 c9 15 19 20 36 16 17 -3 25 1 30 15 4
13 13 18 32 16 24 -3 27 1 30 29 3 26 8 32 30 35 20 2 28 9 30 27 2 13 12 26
23 28 20 6 26 28 9 38 -15 9 0 35 20 35 28 0 33 17 10 30 -28 15 -25 38 5 46
30 7 33 29 5 44 -26 14 -25 36 2 51 21 12 21 12 -6 26 -25 13 -28 19 -24 56 4
38 1 45 -35 78 -28 26 -38 43 -35 60 2 19 -1 23 -16 21 -36 -6 -66 7 -66 30 0
17 -3 19 -12 10 -18 -18 -35 -15 -60 10 -14 14 -23 18 -26 10 -7 -23 -58 -14
-72 13 -17 31 -28 32 -40 1z m131 -142 c85 -43 129 -114 137 -215 4 -59 1 -72
-24 -119 -48 -88 -137 -136 -237 -128 -133 11 -213 88 -224 219 -5 49 -2 67
21 113 35 71 105 128 181 147 38 10 112 1 146 -17z"/>
<path d="M4457 4564 c-4 -4 -7 -38 -7 -76 0 -66 -1 -69 -22 -66 -16 2 -30 18
-46 51 -21 44 -42 62 -42 35 0 -7 -14 -25 -32 -40 l-33 -27 30 -25 30 -24 0
-172 c0 -166 -1 -172 -22 -190 -13 -10 -23 -22 -23 -28 0 -18 37 -42 114 -73
l78 -31 63 27 c35 15 84 40 109 55 46 30 115 113 116 140 0 12 -2 12 -9 2 -4
-8 -11 -12 -14 -10 -3 1 -17 -7 -31 -19 -15 -13 -29 -23 -33 -23 -3 0 -25 -16
-49 -35 -52 -43 -113 -70 -126 -57 -5 5 -8 22 -6 38 3 28 6 29 68 37 35 4 68
13 72 20 4 7 8 38 8 70 0 51 -3 61 -27 82 l-28 23 28 29 c58 62 23 137 -69
145 l-39 3 -5 70 c-4 61 -8 70 -25 73 -12 2 -24 0 -28 -4z"/>
<path d="M3382 6127 c-27 -29 -29 -78 -4 -100 10 -10 35 -17 54 -17 28 0 42 7
62 31 33 39 32 44 -3 80 -37 36 -79 38 -109 6z"/>
<path d="M3410 4853 c-57 -39 -64 -75 -24 -122 34 -41 64 -40 103 4 39 44 39
68 2 106 -34 34 -47 35 -81 12z"/>
<path d="M6732 6130 c-29 -28 -37 -63 -20 -97 10 -22 21 -29 52 -31 31 -3 44
2 67 24 35 34 37 67 4 99 -30 31 -73 32 -103 5z"/>
<path d="M6755 4860 c-28 -11 -44 -31 -51 -66 -4 -24 0 -35 22 -57 33 -34 54
-34 93 -1 23 19 31 34 31 58 0 50 -50 84 -95 66z"/>
<path d="M2905 8534 c-119 -61 -162 -209 -88 -302 30 -39 122 -92 157 -92 12
0 46 13 76 28 130 65 160 234 58 329 -54 50 -145 67 -203 37z m128 -122 c53
-55 21 -132 -55 -132 -46 0 -78 28 -78 68 0 31 13 51 50 76 34 23 52 20 83
-12z"/>
<path d="M7174 8531 c-72 -33 -124 -118 -124 -202 1 -123 136 -211 260 -169
59 20 86 42 110 90 39 79 33 145 -21 219 -53 74 -143 99 -225 62z m124 -107
c33 -23 45 -60 32 -99 -19 -56 -93 -73 -135 -30 -35 34 -32 70 9 111 38 38 60
42 94 18z"/>
<path d="M3869 8123 c-22 -5 -42 -45 -37 -73 4 -33 50 -64 82 -56 28 7 56 51
56 90 0 38 -44 55 -101 39z"/>
<path d="M3606 7978 c-19 -27 -20 -87 -3 -109 7 -8 24 -23 39 -33 27 -18 28
-18 58 12 41 41 44 90 7 130 -28 30 -80 30 -101 0z"/>
<path d="M6482 7977 c-28 -29 -28 -67 -1 -101 26 -33 67 -34 103 -1 32 29 36
83 8 108 -28 25 -84 22 -110 -6z"/>
<path d="M7904 5619 c-98 -27 -156 -178 -101 -260 80 -119 235 -102 292 33 26
64 15 126 -34 182 -34 39 -105 59 -157 45z"/>
<path d="M2199 5597 c-57 -30 -98 -101 -99 -169 0 -40 5 -52 43 -94 40 -44 47
-47 100 -52 48 -4 63 0 101 22 56 33 102 117 92 168 -10 52 -51 104 -98 127
-56 27 -84 27 -139 -2z"/>
<path d="M3643 2995 c-30 -13 -43 -32 -43 -65 0 -23 64 -80 90 -80 43 0 66 83
35 127 -19 27 -46 33 -82 18z"/>
<path d="M2927 2800 c-45 -14 -113 -76 -136 -123 -69 -143 56 -318 209 -292
151 26 230 206 143 327 -51 71 -147 110 -216 88z m117 -141 c30 -35 31 -47 12
-94 -25 -60 -84 -73 -135 -29 -63 53 -17 152 71 154 17 0 35 -10 52 -31z"/>
<path d="M7144 2768 c-70 -47 -108 -123 -101 -200 9 -100 71 -168 171 -187 83
-15 171 36 212 123 32 68 31 125 -2 186 -59 108 -183 143 -280 78z m164 -109
c34 -33 40 -65 20 -102 -17 -33 -39 -46 -78 -47 -47 0 -78 23 -86 64 -7 42 7
71 49 96 43 27 58 25 95 -11z"/>
<path d="M4060 2700 c-28 -28 -25 -57 9 -91 64 -64 155 -13 105 59 -15 22 -63
52 -84 52 -5 0 -19 -9 -30 -20z"/>
</g>
</svg>
